<?xml version="1.0" standalone="no"?>
<!DOCTYPE svg PUBLIC "-//W3C//DTD SVG 20010904//EN"
 "http://www.w3.org/TR/2001/REC-SVG-20010904/DTD/svg10.dtd">
<svg version="1.0" xmlns="http://www.w3.org/2000/svg"
 width="401.000000pt" height="401.000000pt" viewBox="0 0 401.000000 401.000000"
 preserveAspectRatio="xMidYMid meet">
<metadata>
Created by potrace 1.14, written by Peter Selinger 2001-2017
</metadata>
<g transform="translate(0.000000,401.000000) scale(0.100000,-0.100000)"
fill="#000000" stroke="none">
<path d="M1917 3984 c-1 -1 -38 -4 -82 -8 -600 -44 -1161 -376 -1498 -886
-119 -181 -218 -399 -267 -591 -28 -108 -28 -110 -45 -219 -4 -25 -9 -54 -12
-65 -11 -49 -9 -381 4 -472 42 -315 145 -596 309 -846 35 -54 69 -104 74 -110
132 -164 219 -253 357 -365 56 -45 103 -82 106 -82 2 0 37 -22 78 -48 66 -44
225 -127 305 -159 40 -17 204 -72 229 -78 11 -2 58 -14 105 -26 77 -20 116
-22 395 -25 275 -3 320 -1 400 16 154 33 246 60 363 106 103 41 138 58 272
132 252 138 563 446 706 697 45 78 104 190 104 195 0 3 9 26 21 50 34 70 97
270 118 377 32 156 41 252 41 408 0 113 -3 179 -14 250 -3 17 -8 53 -11 80
-29 215 -151 532 -283 740 -107 167 -267 347 -422 477 -145 120 -353 242 -544
318 -153 60 -380 114 -538 126 -83 6 -266 12 -271 8z"/>
</g>
</svg>
