<?xml version="1.0" standalone="no"?>
<!DOCTYPE svg PUBLIC "-//W3C//DTD SVG 20010904//EN"
 "http://www.w3.org/TR/2001/REC-SVG-20010904/DTD/svg10.dtd">
<svg version="1.0" xmlns="http://www.w3.org/2000/svg"
 width="400.000000pt" height="400.000000pt" viewBox="0 0 400.000000 400.000000"
 preserveAspectRatio="xMidYMid meet">
<metadata>
Created by potrace 1.14, written by Peter Selinger 2001-2017
</metadata>
<g transform="translate(0.000000,400.000000) scale(0.100000,-0.100000)"
fill="#000000" stroke="none">
<path d="M1861 3589 c-260 -67 -439 -306 -426 -569 4 -82 4 -81 28 -160 18
-62 81 -165 128 -211 17 -16 29 -34 27 -39 -3 -10 -173 -145 -330 -262 -53
-40 -97 -80 -97 -88 0 -8 14 -67 32 -130 l33 -115 214 -1 c254 -2 241 -1 235
-16 -6 -17 -15 -66 -20 -104 -28 -232 -172 -437 -385 -548 -119 -62 -171 -99
-232 -165 -109 -117 -191 -308 -214 -496 -3 -22 -7 -46 -9 -52 -2 -7 -7 -59
-10 -115 -4 -57 -8 -109 -10 -116 -4 -10 233 -12 1173 -10 777 2 1177 6 1176
13 -1 6 -5 56 -8 112 -4 57 -8 108 -11 115 -2 7 -6 29 -9 48 -3 19 -8 55 -12
79 -4 24 -21 86 -39 136 -74 212 -181 341 -355 429 -251 126 -386 308 -426
576 -2 14 -7 45 -12 70 l-9 45 226 0 226 0 32 115 c36 128 39 146 21 153 -7 3
-62 44 -123 92 -60 47 -152 118 -202 157 -51 39 -93 74 -93 78 0 5 20 30 45
57 89 96 144 248 140 391 -7 243 -170 455 -405 527 -84 25 -211 27 -299 4z"/>
</g>
</svg>
